<svg width="121" height="21" viewBox="0 0 121 21" fill="none" xmlns="http://www.w3.org/2000/svg">
<path d="M105.581 17.1979L109.833 14.6521L114.085 17.225L112.948 12.4042L116.685 9.15417L111.756 8.72083L109.833 4.17083L107.91 8.69375L102.981 9.12708L106.719 12.3771L105.581 17.1979ZM103.144 20.5833L104.904 12.9729L99 7.85417L106.8 7.17708L109.833 0L112.867 7.17708L120.667 7.85417L114.763 12.9729L116.523 20.5833L109.833 16.5479L103.144 20.5833Z" fill="black"/>
<path d="M56.5813 17.1979L60.8333 14.6521L65.0854 17.225L63.9479 12.4042L67.6854 9.15417L62.7563 8.72083L60.8333 4.17083L58.9104 8.69375L53.9813 9.12708L57.7188 12.3771L56.5813 17.1979ZM54.1438 20.5833L55.9042 12.9729L50 7.85417L57.8 7.17708L60.8333 0L63.8667 7.17708L71.6667 7.85417L65.7625 12.9729L67.5229 20.5833L60.8333 16.5479L54.1438 20.5833Z" fill="black"/>
<path d="M81.5813 17.1979L85.8333 14.6521L90.0854 17.225L88.9479 12.4042L92.6854 9.15417L87.7563 8.72083L85.8333 4.17083L83.9104 8.69375L78.9813 9.12708L82.7188 12.3771L81.5813 17.1979ZM79.1438 20.5833L80.9042 12.9729L75 7.85417L82.8 7.17708L85.8333 0L88.8667 7.17708L96.6667 7.85417L90.7625 12.9729L92.5229 20.5833L85.8333 16.5479L79.1438 20.5833Z" fill="black"/>
<path d="M31.5813 17.1979L35.8333 14.6521L40.0854 17.225L38.9479 12.4042L42.6854 9.15417L37.7563 8.72083L35.8333 4.17083L33.9104 8.69375L28.9813 9.12708L32.7188 12.3771L31.5813 17.1979ZM29.1438 20.5833L30.9042 12.9729L25 7.85417L32.8 7.17708L35.8333 0L38.8667 7.17708L46.6667 7.85417L40.7625 12.9729L42.5229 20.5833L35.8333 16.5479L29.1438 20.5833Z" fill="black"/>
<path d="M6.58125 17.1979L10.8333 14.6521L15.0854 17.225L13.9479 12.4042L17.6854 9.15417L12.7563 8.72083L10.8333 4.17083L8.91042 8.69375L3.98125 9.12708L7.71875 12.3771L6.58125 17.1979ZM4.14375 20.5833L5.90417 12.9729L0 7.85417L7.8 7.17708L10.8333 0L13.8667 7.17708L21.6667 7.85417L15.7625 12.9729L17.5229 20.5833L10.8333 16.5479L4.14375 20.5833Z" fill="black"/>
</svg>
