<svg width="60" height="34" viewBox="0 0 60 34" fill="none" xmlns="http://www.w3.org/2000/svg">
<path d="M6.92868 18.7C6.48734 18.7 6.11112 18.5331 5.80001 18.1993C5.4889 17.8654 5.33334 17.464 5.33334 16.9951C5.33334 16.5262 5.49045 16.1264 5.80468 15.7959C6.1189 15.4653 6.49668 15.3 6.93801 15.3C7.37934 15.3 7.75557 15.467 8.06668 15.8008C8.37779 16.1347 8.53334 16.5361 8.53334 17.005C8.53334 17.4739 8.37623 17.8737 8.06201 18.2042C7.74779 18.5348 7.37001 18.7 6.92868 18.7ZM15.9953 18.7C15.554 18.7 15.1778 18.5331 14.8667 18.1993C14.5556 17.8654 14.4 17.464 14.4 16.9951C14.4 16.5262 14.5571 16.1264 14.8713 15.7959C15.1856 15.4653 15.5633 15.3 16.0047 15.3C16.446 15.3 16.8222 15.467 17.1333 15.8008C17.4445 16.1347 17.6 16.5361 17.6 17.005C17.6 17.4739 17.4429 17.8737 17.1287 18.2042C16.8145 18.5348 16.4367 18.7 15.9953 18.7ZM25.062 18.7C24.6207 18.7 24.2445 18.5331 23.9333 18.1993C23.6222 17.8654 23.4667 17.464 23.4667 16.9951C23.4667 16.5262 23.6238 16.1264 23.938 15.7959C24.2522 15.4653 24.63 15.3 25.0713 15.3C25.5127 15.3 25.8889 15.467 26.2 15.8008C26.5111 16.1347 26.6667 16.5361 26.6667 17.005C26.6667 17.4739 26.5096 17.8737 26.1953 18.2042C25.8811 18.5348 25.5033 18.7 25.062 18.7Z" fill="black"/>
<path d="M32.9287 18.7C32.4873 18.7 32.1111 18.5331 31.8 18.1993C31.4889 17.8654 31.3333 17.464 31.3333 16.9951C31.3333 16.5262 31.4905 16.1264 31.8047 15.7959C32.1189 15.4653 32.4967 15.3 32.938 15.3C33.3793 15.3 33.7556 15.467 34.0667 15.8008C34.3778 16.1347 34.5333 16.5361 34.5333 17.005C34.5333 17.4739 34.3762 17.8737 34.062 18.2042C33.7478 18.5348 33.37 18.7 32.9287 18.7ZM41.9953 18.7C41.554 18.7 41.1778 18.5331 40.8667 18.1993C40.5556 17.8654 40.4 17.464 40.4 16.9951C40.4 16.5262 40.5571 16.1264 40.8713 15.7959C41.1856 15.4653 41.5633 15.3 42.0047 15.3C42.446 15.3 42.8222 15.467 43.1333 15.8008C43.4445 16.1347 43.6 16.5361 43.6 17.005C43.6 17.4739 43.4429 17.8737 43.1287 18.2042C42.8145 18.5348 42.4367 18.7 41.9953 18.7ZM51.062 18.7C50.6207 18.7 50.2445 18.5331 49.9333 18.1993C49.6222 17.8654 49.4667 17.464 49.4667 16.9951C49.4667 16.5262 49.6238 16.1264 49.938 15.7959C50.2522 15.4653 50.63 15.3 51.0713 15.3C51.5127 15.3 51.8889 15.467 52.2 15.8008C52.5111 16.1347 52.6667 16.5361 52.6667 17.005C52.6667 17.4739 52.5096 17.8737 52.1953 18.2042C51.8811 18.5348 51.5033 18.7 51.062 18.7Z" fill="black"/>
</svg>
